<svg width="16" height="17" fill="none" xmlns="http://www.w3.org/2000/svg"><path fill-rule="evenodd" clip-rule="evenodd" d="M2.556 2.898c-.15 0-.293.06-.396.162a.535.535 0 00-.16.38v.77c0 5.825 4.767 10.562 10.667 10.562h.777a.56.56 0 00.396-.162.535.535 0 00.16-.38v-2.36l-3.161-1.044-.793 1.569a1 1 0 01-1.301.462 9.55 9.55 0 01-4.792-4.75 1 1 0 01.466-1.31l1.577-.783-1.048-3.116H2.556zM.752 1.64A2.563 2.563 0 012.556.9h2.55a1.771 1.771 0 011.685 1.208L7.958 5.57c.136.406.12.848-.045 1.243M.752 1.64A2.535 2.535 0 000 3.44v.772c0 6.945 5.68 12.561 12.667 12.561h.777c.675 0 1.324-.265 1.804-.74A2.54 2.54 0 0016 14.232v-2.528c0-.373-.118-.736-.338-1.038m-8.6-2.948l-.831.413a7.55 7.55 0 002.487 2.458l.421-.834a1.777 1.777 0 012.147-.887h.001l3.494 1.155c.353.117.662.34.881.643m-8.6-2.948c.382-.189.685-.51.85-.904l-.85.904z" fill="#F3A800"/></svg>